<svg width="28.458" xmlns="http://www.w3.org/2000/svg" height="27.471" id="screenshot-ead2a424-cd46-80f5-8006-989b5c1eb0c7" viewBox="0 0 28.458 27.471" xmlns:xlink="http://www.w3.org/1999/xlink" fill="none" version="1.1"><g id="shape-ead2a424-cd46-80f5-8006-989b5c1eb0c7"><g class="frame-container-wrapper"><g class="frame-container-blur"><g class="frame-container-shadows"><g fill="none"><g class="fills" id="fills-ead2a424-cd46-80f5-8006-989b5c1eb0c7"><rect rx="0" ry="0" x="0" y="0" width="28.45751953125" height="27.47119140625" transform="matrix(1.000000, 0.000000, 0.000000, 1.000000, 0.000000, 0.000000)" class="frame-background"/></g><g class="frame-children"><g id="shape-ead2a424-cd46-80f5-8006-989b5c1eb0c8"><g class="fills" id="fills-ead2a424-cd46-80f5-8006-989b5c1eb0c8"><path d="M23.306884765625,14.642333984375L23.306884765625,23.30908203125C23.306884765625,24.904541015625,22.013427734375,26.197998046875,20.41796875,26.197998046875L4.529052734375,26.197998046875C2.93310546875,26.197998046875,1.64013671875,24.904541015625,1.64013671875,23.30908203125L1.64013671875,7.420166015625C1.64013671875,5.824951171875,2.93310546875,4.53125,4.529052734375,4.53125L13.19580078125,4.53125M18.9736328125,0.197998046875L27.64013671875,0.197998046875L27.64013671875,8.86474609375M11.75146484375,16.0869140625L27.64013671875,0.197998046875M15.215087890625,4.789794921875L8.0302734375,4.296630859375L12.11572265625,3.8740234375L12.608642578125,3.8740234375L2.6064453125,5.282958984375L8.38232421875,4.578369140625L1.972412109375,4.9306640625L10.988525390625,3.169677734375L4.7900390625,3.944580078125L7.74853515625,3.381103515625L6.832763671875,3.451416015625L3.7333984375,4.3671875L4.2265625,4.014892578125L0,9.01611328125L1.056640625,7.536865234375L0.77490234375,10.07275390625L1.127197265625,11.058837890625L1.690673828125,7.748291015625L0.634033203125,13.6650390625L1.6201171875,10.002197265625L0.986328125,16.06005859375L1.056640625,19.30029296875L1.6201171875,17.821044921875L1.33837890625,17.327880859375L0.986328125,19.722900390625L0.986328125,21.765625L1.479248046875,22.822265625L1.197509765625,24.23095703125L1.197509765625,22.3291015625L0.915771484375,23.3857421875L1.90185546875,25.710205078125L2.95849609375,26.766845703125L10.918212890625,26.90771484375L6.339599609375,27.47119140625L14.158447265625,26.766845703125L13.24267578125,26.6259765625L16.060302734375,26.0625L22.540771484375,26.0625L26.4853515625,18.80712890625L26.414794921875,18.455078125L24.794677734375,22.963134765625L25.639892578125,17.11669921875L25.569580078125,16.764404296875L24.865234375,21.2021484375L24.442626953125,20.638671875L24.3017578125,16.06005859375L23.949462890625,18.877685546875L24.231201171875,20.638671875L23.59716796875,18.455078125L23.385986328125,14.6513671875L23.2451171875,22.188232421875L22.96337890625,19.159423828125L23.456298828125,14.7216796875L24.09033203125,18.102783203125M12.3974609375,16.764404296875L13.24267578125,15.00341796875L20.145751953125,6.198486328125L11.05908203125,16.55322265625L12.74951171875,15.28515625L20.990966796875,5.635009765625L23.03369140625,4.08544921875L20.990966796875,6.0576171875L17.116943359375,11.340576171875L21.6953125,5.282958984375L25.921630859375,1.056640625L21.272705078125,5.494140625L20.709228515625,6.480224609375L27.260009765625,0.704345703125L24.16064453125,4.3671875L27.40087890625,0.986083984375L24.09033203125,3.944580078125L25.21728515625,2.53564453125L27.541748046875,0.422607421875L24.65380859375,3.310546875L25.21728515625,2.887939453125M19.22998046875,0.35205078125L17.8212890625,0.5634765625L27.119140625,0L27.33056640625,3.169677734375L28.45751953125,7.818603515625L28.17578125,8.804931640625L27.823486328125,5.70556640625L27.048828125,10.3544921875L27.6826171875,8.100341796875L27.119140625,0.986083984375"/></g><g id="strokes-cd4e13da-2588-80d7-8006-989c4a8d34b6-ead2a424-cd46-80f5-8006-989b5c1eb0c8" class="strokes"><g class="stroke-shape"><path d="M23.306884765625,14.642333984375L23.306884765625,23.30908203125C23.306884765625,24.904541015625,22.013427734375,26.197998046875,20.41796875,26.197998046875L4.529052734375,26.197998046875C2.93310546875,26.197998046875,1.64013671875,24.904541015625,1.64013671875,23.30908203125L1.64013671875,7.420166015625C1.64013671875,5.824951171875,2.93310546875,4.53125,4.529052734375,4.53125L13.19580078125,4.53125M18.9736328125,0.197998046875L27.64013671875,0.197998046875L27.64013671875,8.86474609375M11.75146484375,16.0869140625L27.64013671875,0.197998046875M15.215087890625,4.789794921875L8.0302734375,4.296630859375L12.11572265625,3.8740234375L12.608642578125,3.8740234375L2.6064453125,5.282958984375L8.38232421875,4.578369140625L1.972412109375,4.9306640625L10.988525390625,3.169677734375L4.7900390625,3.944580078125L7.74853515625,3.381103515625L6.832763671875,3.451416015625L3.7333984375,4.3671875L4.2265625,4.014892578125L0,9.01611328125L1.056640625,7.536865234375L0.77490234375,10.07275390625L1.127197265625,11.058837890625L1.690673828125,7.748291015625L0.634033203125,13.6650390625L1.6201171875,10.002197265625L0.986328125,16.06005859375L1.056640625,19.30029296875L1.6201171875,17.821044921875L1.33837890625,17.327880859375L0.986328125,19.722900390625L0.986328125,21.765625L1.479248046875,22.822265625L1.197509765625,24.23095703125L1.197509765625,22.3291015625L0.915771484375,23.3857421875L1.90185546875,25.710205078125L2.95849609375,26.766845703125L10.918212890625,26.90771484375L6.339599609375,27.47119140625L14.158447265625,26.766845703125L13.24267578125,26.6259765625L16.060302734375,26.0625L22.540771484375,26.0625L26.4853515625,18.80712890625L26.414794921875,18.455078125L24.794677734375,22.963134765625L25.639892578125,17.11669921875L25.569580078125,16.764404296875L24.865234375,21.2021484375L24.442626953125,20.638671875L24.3017578125,16.06005859375L23.949462890625,18.877685546875L24.231201171875,20.638671875L23.59716796875,18.455078125L23.385986328125,14.6513671875L23.2451171875,22.188232421875L22.96337890625,19.159423828125L23.456298828125,14.7216796875L24.09033203125,18.102783203125M12.3974609375,16.764404296875L13.24267578125,15.00341796875L20.145751953125,6.198486328125L11.05908203125,16.55322265625L12.74951171875,15.28515625L20.990966796875,5.635009765625L23.03369140625,4.08544921875L20.990966796875,6.0576171875L17.116943359375,11.340576171875L21.6953125,5.282958984375L25.921630859375,1.056640625L21.272705078125,5.494140625L20.709228515625,6.480224609375L27.260009765625,0.704345703125L24.16064453125,4.3671875L27.40087890625,0.986083984375L24.09033203125,3.944580078125L25.21728515625,2.53564453125L27.541748046875,0.422607421875L24.65380859375,3.310546875L25.21728515625,2.887939453125M19.22998046875,0.35205078125L17.8212890625,0.5634765625L27.119140625,0L27.33056640625,3.169677734375L28.45751953125,7.818603515625L28.17578125,8.804931640625L27.823486328125,5.70556640625L27.048828125,10.3544921875L27.6826171875,8.100341796875L27.119140625,0.986083984375" style="fill: none; stroke-width: 2; stroke: rgb(51, 51, 51); stroke-opacity: 1;"/></g></g></g></g></g></g></g></g></g></svg>