<svg width="316" xmlns="http://www.w3.org/2000/svg" height="240" id="screenshot-8d184a59-64e2-80a2-8006-93b3d18ec03a" viewBox="-2204 2189 316 240" xmlns:xlink="http://www.w3.org/1999/xlink" fill="none" version="1.1"><g id="shape-8d184a59-64e2-80a2-8006-93b3d18ec03a"><g class="fills" id="fills-8d184a59-64e2-80a2-8006-93b3d18ec03a"><path d="M-2181.798828125,2194.90380859375L-2182.7041015625,2194.90380859375L-2182.7041015625,2194.451904296875L-2184.967529296875,2194.90380859375L-2189.94677734375,2198.970458984375L-2192.662841796875,2201.681884765625L-2193.568115234375,2203.4892578125L-2194.4736328125,2206.65234375L-2195.37890625,2208.0078125L-2195.83154296875,2209.8154296875L-2195.83154296875,2212.07470703125L-2194.92626953125,2216.593505859375L-2194.020751953125,2217.948974609375L-2192.662841796875,2221.112060546875L-2191.75732421875,2221.112060546875L-2187.230712890625,2224.275146484375L-2179.98828125,2226.986083984375L-2175.461669921875,2226.986083984375L-2174.103515625,2227.438232421875L-2169.124267578125,2227.438232421875L-2168.218994140625,2226.986083984375L-2166.408203125,2226.986083984375L-2162.334228515625,2226.08251953125L-2157.35498046875,2226.08251953125L-2155.9970703125,2225.630615234375L-2154.63916015625,2225.630615234375L-2146.94384765625,2223.371337890625L-2146.490966796875,2222.919677734375L-2146.038330078125,2222.919677734375L-2144.680419921875,2221.563720703125L-2141.96435546875,2220.208251953125L-2139.24853515625,2217.04541015625L-2137.43798828125,2216.141357421875L-2134.269287109375,2210.71923828125L-2133.816650390625,2208.91162109375L-2134.269287109375,2206.65234375L-2135.627197265625,2203.4892578125L-2136.532470703125,2202.58544921875L-2142.869873046875,2198.5185546875L-2145.13330078125,2198.06689453125L-2150.565185546875,2195.8076171875L-2151.923095703125,2195.8076171875L-2155.9970703125,2194.451904296875L-2158.713134765625,2194.451904296875L-2160.071044921875,2194L-2167.313720703125,2194L-2172.29296875,2195.355712890625L-2175.914306640625,2195.355712890625L-2176.819580078125,2195.8076171875L-2177.724853515625,2195.8076171875L-2179.53564453125,2196.711181640625L-2180.8935546875,2196.711181640625L-2181.798828125,2197.1630859375L-2184.514892578125,2197.1630859375L-2184.967529296875,2197.614990234375L-2185.872802734375,2197.614990234375L-2185.872802734375,2198.06689453125L-2186.325439453125,2198.06689453125L-2185.872802734375,2198.06689453125L-2186.325439453125,2198.06689453125L-2185.872802734375,2198.06689453125L-2186.325439453125,2198.06689453125L-2185.872802734375,2198.06689453125L-2184.514892578125,2197.1630859375M-2135.174560546875,2211.1708984375L-2134.721923828125,2211.1708984375L-2134.721923828125,2210.71923828125L-2134.721923828125,2212.5263671875L-2134.269287109375,2213.43017578125L-2134.269287109375,2215.689697265625L-2134.721923828125,2216.141357421875L-2135.174560546875,2217.4970703125L-2135.174560546875,2221.112060546875L-2135.627197265625,2221.563720703125L-2135.174560546875,2222.015869140625L-2135.627197265625,2222.4677734375L-2135.174560546875,2223.371337890625L-2135.174560546875,2228.342041015625L-2134.721923828125,2228.793701171875L-2135.174560546875,2228.793701171875L-2135.174560546875,2230.601318359375L-2136.079833984375,2231.505126953125L-2136.079833984375,2231.05322265625L-2136.079833984375,2231.505126953125L-2137.43798828125,2231.505126953125L-2137.890625,2231.956787109375L-2137.890625,2232.40869140625L-2138.7958984375,2232.40869140625L-2139.24853515625,2232.860595703125L-2140.6064453125,2232.860595703125L-2141.05908203125,2233.3125L-2142.417236328125,2233.76416015625L-2144.227783203125,2233.76416015625L-2144.680419921875,2234.216064453125L-2146.038330078125,2234.216064453125L-2148.302001953125,2235.119873046875L-2149.207275390625,2235.119873046875L-2150.112548828125,2236.023681640625L-2151.017822265625,2236.023681640625L-2151.923095703125,2235.57177734375L-2158.26025390625,2235.57177734375L-2158.26025390625,2235.119873046875L-2159.165771484375,2235.57177734375L-2160.071044921875,2235.57177734375L-2160.523681640625,2236.023681640625L-2169.5771484375,2236.023681640625L-2170.482421875,2236.4755859375L-2171.840087890625,2236.4755859375L-2172.29296875,2236.023681640625L-2172.74560546875,2236.023681640625L-2173.1982421875,2236.4755859375L-2174.103515625,2236.023681640625L-2174.55615234375,2236.4755859375L-2177.724853515625,2236.4755859375L-2178.177734375,2236.023681640625L-2180.8935546875,2236.023681640625L-2181.798828125,2235.119873046875L-2184.062255859375,2234.66796875L-2186.778076171875,2232.860595703125L-2188.135986328125,2232.860595703125L-2188.588623046875,2232.40869140625L-2190.3994140625,2231.956787109375L-2190.85205078125,2231.505126953125L-2191.75732421875,2231.505126953125L-2192.2099609375,2231.05322265625L-2192.662841796875,2231.05322265625L-2192.662841796875,2230.601318359375L-2193.568115234375,2230.601318359375L-2194.020751953125,2230.1494140625L-2194.020751953125,2229.697509765625L-2194.92626953125,2229.697509765625L-2194.92626953125,2229.24560546875L-2195.37890625,2229.24560546875L-2195.83154296875,2228.793701171875L-2195.83154296875,2228.342041015625L-2196.283935546875,2228.342041015625L-2196.736572265625,2227.89013671875L-2196.736572265625,2226.986083984375L-2197.189453125,2226.986083984375L-2197.189453125,2226.08251953125L-2197.64208984375,2225.630615234375L-2197.64208984375,2224.72705078125L-2198.0947265625,2224.275146484375L-2198.0947265625,2217.4970703125L-2197.64208984375,2217.04541015625L-2198.0947265625,2216.593505859375L-2197.64208984375,2216.141357421875L-2197.64208984375,2213.88232421875L-2197.189453125,2213.88232421875L-2197.64208984375,2213.43017578125L-2197.189453125,2212.978271484375L-2197.64208984375,2212.5263671875L-2197.189453125,2212.5263671875L-2197.189453125,2210.71923828125L-2196.283935546875,2209.363525390625L-2196.736572265625,2208.91162109375L-2196.283935546875,2208.91162109375L-2195.37890625,2207.555908203125L-2195.37890625,2207.104248046875L-2194.92626953125,2207.104248046875L-2195.37890625,2207.104248046875L-2194.92626953125,2206.200439453125M-2141.51171875,2222.4677734375L-2141.51171875,2222.015869140625L-2141.96435546875,2224.275146484375L-2141.96435546875,2228.342041015625L-2142.869873046875,2231.505126953125L-2142.869873046875,2232.860595703125L-2143.322509765625,2232.860595703125M-2149.207275390625,2228.342041015625L-2149.659912109375,2231.956787109375L-2151.470458984375,2237.379150390625L-2151.923095703125,2237.8310546875M-2157.8076171875,2227.89013671875L-2157.8076171875,2228.793701171875L-2160.071044921875,2236.4755859375L-2160.976318359375,2238.282958984375L-2161.428955078125,2240.09033203125M-2170.934814453125,2229.24560546875L-2171.387451171875,2228.342041015625L-2172.29296875,2233.3125L-2174.55615234375,2239.638427734375M-2184.967529296875,2227.438232421875L-2185.420166015625,2227.89013671875L-2185.872802734375,2227.89013671875L-2187.230712890625,2233.76416015625L-2187.683349609375,2234.66796875M-2190.3994140625,2225.1787109375L-2194.020751953125,2231.05322265625M-2194.92626953125,2219.75634765625L-2195.83154296875,2219.75634765625L-2197.64208984375,2222.015869140625L-2198.0947265625,2224.275146484375L-2199,2225.1787109375L-2198.54736328125,2225.1787109375M-2134.269287109375,2218.40087890625L-2135.174560546875,2218.40087890625L-2132.911376953125,2218.8525390625L-2132.005859375,2219.75634765625L-2131.100341796875,2219.75634765625L-2130.64794921875,2220.208251953125L-2128.83740234375,2220.66015625L-2127.026611328125,2222.015869140625L-2127.026611328125,2221.563720703125L-2125.668701171875,2222.4677734375L-2124.763427734375,2222.4677734375L-2124.763427734375,2222.919677734375L-2124.310791015625,2223.371337890625L-2123.858154296875,2223.371337890625L-2121.5947265625,2225.630615234375L-2121.5947265625,2226.08251953125L-2121.14208984375,2226.08251953125L-2120.689453125,2227.438232421875L-2120.23681640625,2227.438232421875L-2120.23681640625,2228.342041015625L-2119.783935546875,2228.793701171875L-2119.783935546875,2237.379150390625L-2120.23681640625,2237.379150390625L-2120.23681640625,2239.186767578125L-2120.689453125,2239.638427734375L-2120.689453125,2240.542236328125L-2121.14208984375,2240.542236328125L-2121.14208984375,2240.993896484375L-2121.5947265625,2241.446044921875L-2121.5947265625,2242.349853515625L-2123.858154296875,2244.609130859375L-2124.310791015625,2245.512939453125L-2124.763427734375,2245.512939453125L-2125.668701171875,2246.41650390625L-2126.121337890625,2246.868408203125L-2126.121337890625,2247.3203125L-2127.026611328125,2247.3203125L-2127.479248046875,2247.772216796875L-2127.931884765625,2247.772216796875L-2129.2900390625,2249.127685546875L-2129.74267578125,2249.127685546875L-2132.458740234375,2251.38720703125L-2132.911376953125,2251.38720703125L-2132.911376953125,2251.8388671875L-2133.364013671875,2251.8388671875L-2135.627197265625,2253.194580078125L-2139.701171875,2254.09814453125L-2141.05908203125,2255.001953125L-2144.227783203125,2255.90576171875L-2145.585693359375,2255.90576171875L-2146.94384765625,2256.357666015625L-2150.112548828125,2256.357666015625L-2150.565185546875,2256.809326171875L-2151.017822265625,2256.357666015625L-2151.923095703125,2256.809326171875L-2152.828369140625,2256.357666015625L-2155.9970703125,2256.357666015625L-2156.44970703125,2255.90576171875L-2158.713134765625,2255.90576171875L-2159.165771484375,2255.453857421875L-2160.071044921875,2255.453857421875L-2160.523681640625,2255.001953125L-2161.881591796875,2255.001953125L-2162.334228515625,2254.550048828125L-2163.23974609375,2254.550048828125L-2163.23974609375,2254.09814453125L-2164.145263671875,2254.09814453125L-2164.597900390625,2253.646240234375L-2165.95556640625,2253.646240234375L-2166.408203125,2253.194580078125L-2167.313720703125,2253.194580078125L-2167.766357421875,2252.74267578125L-2169.124267578125,2252.74267578125L-2169.5771484375,2252.290771484375L-2170.482421875,2252.290771484375L-2170.934814453125,2251.8388671875L-2173.65087890625,2250.935302734375L-2174.103515625,2250.031494140625L-2174.55615234375,2250.031494140625L-2174.55615234375,2249.57958984375L-2175.461669921875,2248.67578125L-2175.914306640625,2248.67578125L-2176.819580078125,2247.772216796875L-2177.272216796875,2247.772216796875L-2180.44091796875,2244.157470703125L-2182.25146484375,2241.446044921875L-2182.7041015625,2240.09033203125L-2183.609619140625,2239.638427734375L-2183.609619140625,2238.73486328125L-2184.514892578125,2237.379150390625L-2184.514892578125,2236.4755859375L-2184.514892578125,2237.8310546875M-2120.689453125,2237.8310546875L-2121.14208984375,2237.8310546875L-2120.689453125,2239.186767578125L-2121.14208984375,2239.638427734375L-2121.14208984375,2249.57958984375L-2120.689453125,2250.4833984375L-2120.689453125,2253.194580078125L-2120.23681640625,2253.194580078125L-2120.689453125,2253.194580078125L-2120.689453125,2255.453857421875L-2121.14208984375,2255.90576171875L-2121.14208984375,2257.71337890625L-2121.14208984375,2257.26123046875L-2121.14208984375,2257.71337890625L-2121.14208984375,2257.26123046875L-2121.14208984375,2257.71337890625L-2121.5947265625,2257.26123046875L-2121.5947265625,2257.71337890625M-2121.5947265625,2257.71337890625L-2122.5,2258.616943359375L-2122.5,2259.06884765625L-2123.858154296875,2260.876220703125L-2123.858154296875,2261.328125L-2124.763427734375,2262.231689453125L-2125.216064453125,2262.231689453125L-2125.216064453125,2262.68359375L-2125.668701171875,2263.1357421875L-2126.121337890625,2263.1357421875L-2127.479248046875,2264.4912109375L-2127.931884765625,2264.4912109375L-2128.83740234375,2266.75048828125L-2130.1953125,2267.202392578125L-2132.005859375,2268.55810546875L-2134.269287109375,2269.010009765625L-2134.269287109375,2269.461669921875L-2134.721923828125,2269.461669921875L-2135.174560546875,2269.010009765625L-2135.174560546875,2269.461669921875L-2135.627197265625,2269.461669921875L-2135.627197265625,2269.91357421875L-2136.532470703125,2269.91357421875L-2136.9853515625,2270.365478515625L-2137.43798828125,2270.365478515625L-2137.43798828125,2270.8173828125L-2138.34326171875,2270.8173828125L-2138.34326171875,2271.269287109375L-2140.6064453125,2271.72119140625L-2141.05908203125,2272.173095703125L-2141.05908203125,2271.72119140625L-2141.51171875,2272.173095703125L-2143.775146484375,2272.625L-2143.775146484375,2273.07666015625L-2144.227783203125,2273.07666015625L-2144.680419921875,2272.625L-2144.680419921875,2273.07666015625L-2146.038330078125,2272.173095703125L-2149.207275390625,2272.173095703125L-2150.112548828125,2271.72119140625L-2152.375732421875,2271.72119140625L-2153.28125,2271.269287109375L-2157.35498046875,2271.269287109375L-2157.35498046875,2270.8173828125L-2158.26025390625,2271.269287109375L-2158.26025390625,2270.8173828125L-2161.428955078125,2270.8173828125L-2161.428955078125,2270.365478515625L-2165.050537109375,2270.365478515625L-2165.050537109375,2269.91357421875L-2166.861083984375,2269.91357421875L-2168.218994140625,2269.010009765625L-2169.124267578125,2269.010009765625L-2169.5771484375,2268.55810546875L-2170.934814453125,2268.55810546875L-2170.934814453125,2268.10595703125L-2171.840087890625,2268.10595703125L-2172.29296875,2267.654052734375L-2174.55615234375,2267.654052734375L-2174.55615234375,2267.202392578125L-2176.819580078125,2267.202392578125L-2177.272216796875,2266.75048828125L-2178.177734375,2266.75048828125L-2179.0830078125,2265.846923828125L-2179.0830078125,2266.298828125L-2179.53564453125,2265.846923828125L-2180.44091796875,2265.846923828125L-2180.44091796875,2265.39501953125L-2180.8935546875,2265.39501953125L-2181.34619140625,2264.943115234375L-2181.798828125,2264.943115234375L-2181.798828125,2264.4912109375L-2182.25146484375,2264.4912109375L-2182.25146484375,2264.039306640625L-2183.15673828125,2263.1357421875L-2183.15673828125,2262.231689453125L-2183.609619140625,2262.231689453125L-2183.609619140625,2261.780029296875L-2184.062255859375,2261.780029296875L-2184.062255859375,2260.876220703125L-2185.872802734375,2258.616943359375L-2185.872802734375,2257.71337890625L-2186.325439453125,2257.26123046875L-2186.778076171875,2255.001953125L-2187.230712890625,2255.001953125L-2187.230712890625,2254.550048828125L-2187.683349609375,2254.09814453125L-2187.683349609375,2253.194580078125L-2188.588623046875,2251.8388671875L-2188.588623046875,2250.935302734375L-2189.04150390625,2250.4833984375L-2189.04150390625,2241.89794921875L-2188.588623046875,2240.993896484375L-2188.588623046875,2239.638427734375L-2189.04150390625,2239.638427734375L-2188.588623046875,2239.186767578125L-2188.588623046875,2238.73486328125L-2189.04150390625,2238.73486328125L-2188.588623046875,2238.73486328125L-2188.588623046875,2238.282958984375L-2189.04150390625,2238.73486328125L-2189.04150390625,2238.282958984375L-2188.588623046875,2238.282958984375L-2189.04150390625,2238.282958984375L-2188.588623046875,2238.282958984375L-2189.04150390625,2237.8310546875L-2189.04150390625,2236.4755859375L-2188.588623046875,2237.379150390625M-2177.724853515625,2249.57958984375L-2177.724853515625,2249.127685546875L-2178.177734375,2249.127685546875L-2178.177734375,2248.67578125L-2178.177734375,2249.127685546875L-2178.63037109375,2249.127685546875L-2179.0830078125,2250.4833984375L-2179.0830078125,2252.290771484375L-2182.25146484375,2263.587646484375L-2179.53564453125,2261.328125L-2178.177734375,2259.520751953125M-2171.387451171875,2256.809326171875L-2171.387451171875,2255.90576171875L-2171.387451171875,2256.357666015625L-2170.934814453125,2256.357666015625L-2171.387451171875,2268.55810546875L-2170.934814453125,2268.55810546875M-2160.523681640625,2260.42431640625L-2160.523681640625,2259.972412109375L-2161.881591796875,2269.461669921875L-2161.881591796875,2270.365478515625L-2161.428955078125,2270.8173828125M-2151.017822265625,2260.876220703125L-2151.017822265625,2271.72119140625L-2150.565185546875,2272.625M-2140.6064453125,2255.90576171875L-2141.05908203125,2255.90576171875L-2140.6064453125,2258.616943359375L-2140.6064453125,2262.68359375L-2141.51171875,2267.202392578125L-2141.05908203125,2269.91357421875M-2130.64794921875,2255.453857421875L-2128.83740234375,2268.10595703125M-2124.763427734375,2251.8388671875L-2125.216064453125,2251.8388671875L-2125.668701171875,2254.09814453125L-2125.668701171875,2264.039306640625L-2125.216064453125,2264.4912109375M-2170.02978515625,2206.65234375L-2172.29296875,2206.200439453125L-2170.934814453125,2205.296630859375L-2168.671630859375,2203.03759765625L-2166.861083984375,2198.970458984375L-2166.408203125,2197.1630859375L-2166.408203125,2198.5185546875L-2166.861083984375,2199.874267578125L-2166.861083984375,2202.58544921875L-2166.408203125,2204.8447265625L-2165.5029296875,2206.65234375L-2164.145263671875,2213.43017578125L-2164.145263671875,2215.23779296875L-2163.6923828125,2216.141357421875L-2163.23974609375,2218.8525390625L-2162.787109375,2219.3046875L-2163.23974609375,2219.3046875L-2162.787109375,2219.75634765625L-2162.787109375,2219.3046875L-2163.23974609375,2219.3046875L-2163.23974609375,2219.75634765625L-2165.5029296875,2220.208251953125L-2167.313720703125,2221.112060546875L-2169.124267578125,2221.112060546875L-2169.124267578125,2220.66015625L-2169.124267578125,2221.112060546875L-2168.218994140625,2220.66015625L-2166.861083984375,2220.66015625L-2162.334228515625,2219.75634765625L-2160.071044921875,2218.8525390625L-2160.071044921875,2219.3046875L-2159.618408203125,2218.8525390625L-2159.165771484375,2218.8525390625L-2159.618408203125,2218.8525390625M-2149.659912109375,2240.09033203125L-2149.659912109375,2242.801513671875L-2149.207275390625,2243.705322265625L-2148.754638671875,2247.772216796875L-2148.302001953125,2248.223876953125L-2148.302001953125,2249.127685546875L-2148.302001953125,2248.67578125L-2150.112548828125,2248.67578125L-2151.923095703125,2249.57958984375L-2153.73388671875,2249.57958984375L-2150.112548828125,2248.223876953125L-2147.84912109375,2248.223876953125L-2145.585693359375,2247.3203125L-2144.227783203125,2247.3203125L-2142.869873046875,2247.772216796875L-2143.775146484375,2247.772216796875L-2144.227783203125,2247.3203125M-2150.112548828125,2242.801513671875L-2150.112548828125,2243.25341796875L-2150.565185546875,2243.705322265625L-2151.923095703125,2241.446044921875L-2151.923095703125,2237.379150390625L-2151.923095703125,2238.282958984375L-2151.017822265625,2240.993896484375L-2151.017822265625,2242.349853515625L-2150.112548828125,2244.609130859375M-2082.213134765625,2216.593505859375L-2084.476318359375,2215.23779296875L-2085.3818359375,2215.23779296875L-2069.53857421875,2215.689697265625L-2057.316650390625,2214.333984375L-2050.979248046875,2214.333984375L-2045.54736328125,2213.43017578125L-2046.9053955078125,2213.88232421875L-2063.65380859375,2216.141357421875L-2073.15966796875,2215.689697265625L-2079.04443359375,2216.593505859375L-2080.85498046875,2217.4970703125L-2078.591796875,2217.04541015625L-2072.70703125,2217.04541015625L-2062.2958984375,2216.141357421875L-2057.316650390625,2216.141357421875L-2055.95849609375,2215.689697265625L-2055.05322265625,2216.141357421875L-2060.03271484375,2216.141357421875L-2070.44384765625,2217.04541015625L-2074.517822265625,2217.04541015625L-2084.023681640625,2215.23779296875L-2079.94970703125,2216.141357421875L-2074.517822265625,2216.141357421875L-2057.316650390625,2213.43017578125L-2046.9053955078125,2213.43017578125L-2046,2213.88232421875L-2046,2213.43017578125L-2046,2213.88232421875L-2045.54736328125,2213.43017578125L-2044.6419677734375,2213.43017578125L-2044.6419677734375,2213.88232421875L-2043.7366943359375,2213.43017578125L-2041.020751953125,2213.43017578125L-2039.2100830078125,2212.978271484375L-2039.6627197265625,2212.978271484375L-2039.6627197265625,2213.43017578125L-2041.020751953125,2213.43017578125L-2042.378662109375,2212.978271484375L-2058.221923828125,2213.88232421875L-2070.44384765625,2215.23779296875L-2073.15966796875,2215.23779296875L-2074.970458984375,2215.689697265625L-2079.4970703125,2215.689697265625L-2084.92919921875,2216.593505859375L-2077.23388671875,2215.23779296875L-2066.369873046875,2216.141357421875L-2062.2958984375,2216.141357421875M-2063.65380859375,2236.023681640625L-2079.4970703125,2237.379150390625L-2077.23388671875,2237.379150390625L-2056.4111328125,2235.119873046875L-2051.884765625,2235.119873046875L-2049.168701171875,2234.66796875L-2046.9053955078125,2235.119873046875L-2045.54736328125,2234.66796875L-2048.26318359375,2234.66796875L-2050.979248046875,2235.119873046875L-2053.6953125,2236.023681640625L-2074.517822265625,2238.73486328125L-2077.23388671875,2238.282958984375L-2080.40234375,2238.282958984375L-2079.94970703125,2238.282958984375L-2079.4970703125,2238.73486328125L-2074.06494140625,2239.186767578125L-2065.46435546875,2237.8310546875L-2050.526611328125,2236.4755859375L-2045.0946044921875,2235.57177734375L-2042.378662109375,2235.57177734375L-2044.6419677734375,2235.57177734375L-2060.485107421875,2237.379150390625L-2067.275146484375,2237.379150390625L-2080.85498046875,2236.4755859375L-2080.85498046875,2236.023681640625L-2080.85498046875,2236.4755859375L-2074.970458984375,2236.927490234375L-2050.979248046875,2235.119873046875L-2045.54736328125,2234.216064453125L-2041.4735107421875,2234.216064453125L-2041.020751953125,2234.66796875L-2040.568115234375,2234.66796875L-2042.378662109375,2234.66796875L-2049.168701171875,2236.4755859375L-2068.63330078125,2239.186767578125L-2073.6123046875,2239.186767578125L-2068.180419921875,2239.186767578125L-2042.8314208984375,2235.57177734375L-2041.020751953125,2235.57177734375L-2041.926025390625,2236.023681640625L-2044.6419677734375,2236.023681640625L-2050.979248046875,2237.379150390625L-2063.65380859375,2239.186767578125L-2070.44384765625,2240.542236328125L-2079.94970703125,2240.993896484375L-2079.4970703125,2240.542236328125L-2078.13916015625,2240.09033203125L-2070.44384765625,2238.73486328125L-2061.84326171875,2237.8310546875L-2056.4111328125,2237.8310546875L-2045.54736328125,2236.4755859375L-2042.378662109375,2236.4755859375L-2045.0946044921875,2236.4755859375L-2052.7900390625,2238.282958984375L-2067.275146484375,2240.542236328125L-2071.34912109375,2240.542236328125L-2072.70703125,2240.09033203125L-2077.6865234375,2240.542236328125L-2070.896484375,2239.186767578125L-2045.54736328125,2236.927490234375L-2045.54736328125,2236.4755859375L-2045.54736328125,2236.927490234375L-2049.621337890625,2236.927490234375M-1999.828369140625,2208.91162109375L-2000.281005859375,2208.0078125L-2002.091796875,2206.65234375L-2002.54443359375,2205.74853515625L-2003.4498291015625,2205.296630859375L-2002.091796875,2211.622802734375L-2000.7337646484375,2216.141357421875L-1998.923095703125,2220.66015625L-1997.1124267578125,2232.860595703125L-1996.6597900390625,2233.3125L-1996.2071533203125,2234.66796875L-1995.7545166015625,2234.66796875L-1995.3018798828125,2232.40869140625L-1990.7752685546875,2222.4677734375L-1985.7958984375,2214.785888671875L-1984.8905029296875,2211.622802734375L-1982.6273193359375,2207.555908203125L-1982.174560546875,2205.74853515625L-1982.174560546875,2207.555908203125M-1955.4674072265625,2205.74853515625L-1954.5621337890625,2204.392822265625L-1954.5621337890625,2203.941162109375L-1954.5621337890625,2204.392822265625L-1957.2781982421875,2205.74853515625L-1959.994140625,2208.4599609375L-1963.6153564453125,2211.1708984375L-1967.689453125,2215.23779296875L-1972.216064453125,2220.66015625L-1973.573974609375,2223.371337890625L-1973.573974609375,2226.08251953125L-1973.121337890625,2227.89013671875L-1972.216064453125,2229.697509765625L-1969.04736328125,2230.601318359375L-1966.7840576171875,2230.601318359375L-1964.520751953125,2229.697509765625L-1961.8046875,2227.89013671875L-1958.6361083984375,2223.371337890625L-1956.372802734375,2219.3046875L-1952.75146484375,2210.267333984375L-1952.75146484375,2207.104248046875L-1952.298828125,2207.104248046875L-1952.75146484375,2207.104248046875L-1952.75146484375,2208.4599609375L-1957.7308349609375,2227.438232421875L-1957.7308349609375,2232.860595703125L-1955.9200439453125,2236.023681640625L-1955.0147705078125,2236.927490234375L-1954.5621337890625,2236.927490234375L-1955.0147705078125,2236.927490234375L-1955.0147705078125,2235.57177734375L-1956.825439453125,2232.860595703125M-1936.9083251953125,2200.778076171875L-1936.0030517578125,2198.5185546875L-1936.9083251953125,2204.8447265625L-1939.624267578125,2215.23779296875L-1945.0562744140625,2225.630615234375L-1945.0562744140625,2226.08251953125L-1944.6036376953125,2225.630615234375L-1943.24560546875,2225.1787109375L-1935.55029296875,2223.8232421875L-1923.328369140625,2223.8232421875L-1924.6864013671875,2223.371337890625M-1907.4852294921875,2209.363525390625L-1907.4852294921875,2208.91162109375L-1910.201171875,2212.5263671875L-1912.0118408203125,2216.141357421875L-1913.369873046875,2219.75634765625L-1914.2752685546875,2224.72705078125L-1914.2752685546875,2226.986083984375L-1913.369873046875,2228.342041015625L-1912.4644775390625,2228.793701171875L-1911.1064453125,2228.342041015625L-1906.5799560546875,2225.1787109375L-1893,2209.363525390625L-1893,2210.267333984375L-1894.3580322265625,2213.88232421875L-1901.14794921875,2226.986083984375L-1902.95849609375,2231.956787109375L-1903.8638916015625,2235.57177734375L-1903.8638916015625,2239.638427734375L-1904.316650390625,2239.638427734375L-1904.769287109375,2238.282958984375M-2085.83447265625,2277.595458984375L-2086.73974609375,2276.691650390625L-2083.571044921875,2279.403076171875L-2074.06494140625,2285.72900390625L-2069.53857421875,2288.440185546875L-2064.1064453125,2290.699462890625L-2056.4111328125,2294.766357421875L-2052.7900390625,2297.025634765625L-2049.168701171875,2300.640625L-2048.716064453125,2300.640625L-2048.716064453125,2301.09228515625L-2049.168701171875,2301.09228515625L-2050.073974609375,2300.188720703125L-2050.526611328125,2300.188720703125L-2050.979248046875,2299.73681640625L-2050.979248046875,2299.284912109375L-2052.7900390625,2298.381103515625L-2053.6953125,2297.477294921875L-2058.674560546875,2295.218017578125L-2065.01171875,2290.699462890625L-2068.180419921875,2288.891845703125L-2071.8017578125,2287.08447265625L-2078.591796875,2284.825439453125L-2082.665771484375,2281.662109375L-2084.92919921875,2279.403076171875L-2086.73974609375,2277.1435546875L-2087.64501953125,2275.3359375L-2089.0029296875,2273.98046875L-2089.908203125,2273.98046875L-2089.45556640625,2273.98046875L-2087.64501953125,2276.23974609375L-2084.92919921875,2278.4990234375L-2076.78125,2282.56591796875L-2070.44384765625,2286.180908203125L-2062.74853515625,2291.603271484375L-2060.03271484375,2292.958740234375L-2054.6005859375,2296.57373046875L-2053.24267578125,2297.92919921875L-2053.24267578125,2298.381103515625L-2053.6953125,2298.381103515625L-2055.505859375,2296.57373046875L-2062.2958984375,2293.862548828125L-2065.46435546875,2292.05517578125L-2067.727783203125,2290.24755859375L-2072.70703125,2284.825439453125L-2076.78125,2282.114013671875L-2083.571044921875,2280.306640625L-2085.3818359375,2279.403076171875L-2086.73974609375,2277.595458984375L-2069.53857421875,2283.92138671875L-2064.55908203125,2286.180908203125L-2054.14794921875,2292.05517578125L-2052.33740234375,2293.410888671875L-2052.7900390625,2292.958740234375L-2053.6953125,2292.958740234375L-2058.221923828125,2291.603271484375L-2062.2958984375,2291.1513671875M-2098.05615234375,2293.410888671875L-2099.414306640625,2292.05517578125L-2099.414306640625,2291.603271484375L-2099.866943359375,2291.603271484375L-2097.603515625,2293.862548828125L-2086.287109375,2302.899658203125L-2073.15966796875,2311.4853515625L-2066.822509765625,2317.359375L-2072.25439453125,2313.29296875L-2079.04443359375,2309.225830078125L-2082.213134765625,2306.5146484375L-2086.287109375,2303.803466796875L-2098.05615234375,2297.92919921875L-2102.130126953125,2295.218017578125L-2090.361083984375,2299.284912109375L-2084.92919921875,2301.99609375L-2077.6865234375,2306.966796875L-2073.6123046875,2309.225830078125L-2066.822509765625,2312.38916015625L-2067.727783203125,2312.38916015625L-2069.9912109375,2311.4853515625L-2074.517822265625,2309.225830078125L-2082.665771484375,2302.447998046875L-2087.192138671875,2297.92919921875L-2091.718994140625,2294.766357421875L-2097.15087890625,2292.05517578125L-2098.961669921875,2291.603271484375L-2098.509033203125,2291.603271484375L-2091.718994140625,2297.025634765625L-2083.571044921875,2302.899658203125L-2077.6865234375,2306.06298828125L-2069.53857421875,2311.033447265625L-2067.727783203125,2312.841064453125L-2067.275146484375,2313.74462890625L-2067.727783203125,2313.74462890625L-2071.34912109375,2310.58154296875L-2073.6123046875,2306.966796875M-2049.168701171875,2279.854736328125L-2047.8106689453125,2277.595458984375L-2046.9053955078125,2277.1435546875L-2046.9053955078125,2275.787841796875L-2052.33740234375,2281.210205078125L-2058.221923828125,2286.180908203125L-2074.06494140625,2298.381103515625L-2087.192138671875,2307.418701171875L-2094.434814453125,2311.93701171875L-2099.866943359375,2314.6484375L-2102.582763671875,2315.552001953125L-2102.130126953125,2315.552001953125L-2101.677490234375,2314.196533203125L-2099.414306640625,2312.38916015625L-2087.64501953125,2304.707275390625L-2049.621337890625,2284.825439453125L-2043.2840576171875,2278.950927734375L-2046,2281.662109375L-2054.14794921875,2287.98828125L-2063.201171875,2292.958740234375L-2089.45556640625,2309.225830078125L-2094.887451171875,2311.4853515625L-2092.624267578125,2310.58154296875L-2076.78125,2301.544189453125L-2053.24267578125,2285.72900390625L-2047.8106689453125,2281.210205078125L-2048.26318359375,2281.662109375L-2048.26318359375,2282.114013671875L-2057.316650390625,2288.891845703125L-2065.9169921875,2293.862548828125L-2091.718994140625,2313.29296875L-2094.887451171875,2315.100341796875L-2095.340087890625,2315.100341796875L-2094.434814453125,2314.196533203125M-2036.94677734375,2315.100341796875L-2037.3994140625,2314.6484375L-2038.3046875,2314.6484375L-2038.3046875,2314.196533203125L-2036.494140625,2310.58154296875L-2033.3255615234375,2306.5146484375L-2030.15673828125,2303.3515625L-2026.0828857421875,2300.188720703125L-2024.724853515625,2299.73681640625L-2023.3668212890625,2300.188720703125L-2022.4615478515625,2304.255615234375L-2023.819580078125,2310.129638671875L-2025.1776123046875,2311.4853515625L-2024.724853515625,2311.033447265625L-2024.724853515625,2309.677978515625L-2017.0296630859375,2301.99609375L-2014.3135986328125,2300.640625L-2012.9556884765625,2300.640625L-2012.05029296875,2301.99609375L-2012.05029296875,2304.707275390625L-2013.8609619140625,2308.774169921875L-2017.0296630859375,2314.196533203125L-2017.9349365234375,2316.455810546875L-2017.9349365234375,2316.00390625L-2015.2188720703125,2311.4853515625L-2011.14501953125,2306.5146484375L-2005.7130126953125,2301.99609375L-2003.4498291015625,2302.899658203125L-2002.9970703125,2304.255615234375L-2002.9970703125,2307.870361328125L-2006.165771484375,2314.6484375L-2008.8817138671875,2319.1669921875M-2009.3343505859375,2325.945068359375L-2008.8817138671875,2325.945068359375L-2008.8817138671875,2325.4931640625L-2007.976318359375,2325.041259765625L-2005.2603759765625,2322.330078125L-1998.470458984375,2314.196533203125L-1996.6597900390625,2311.4853515625L-1988.9644775390625,2302.899658203125L-1988.059326171875,2302.447998046875L-1990.7752685546875,2310.58154296875L-1994.8492431640625,2319.1669921875L-1997.1124267578125,2323.23388671875L-1999.375732421875,2330.91552734375L-1998.470458984375,2330.91552734375M-2001.6390380859375,2320.07080078125L-2001.6390380859375,2319.618896484375L-1997.1124267578125,2320.07080078125M-1980.364013671875,2314.196533203125L-1983.0799560546875,2321.426513671875L-1989.869873046875,2337.24169921875L-1989.417236328125,2336.789794921875L-1988.5118408203125,2334.078857421875L-1986.701171875,2330.463623046875L-1983.9852294921875,2327.30078125L-1979.911376953125,2325.4931640625L-1977.1953125,2325.945068359375L-1973.121337890625,2327.75244140625L-1972.668701171875,2328.204345703125L-1973.121337890625,2330.01171875M-1956.825439453125,2310.129638671875L-1956.372802734375,2309.677978515625L-1958.6361083984375,2319.1669921875L-1964.9735107421875,2335.434326171875L-1969.95263671875,2346.73095703125M-1960.44677734375,2330.01171875L-1959.0887451171875,2327.75244140625L-1951.3935546875,2321.87841796875L-1950.0355224609375,2321.426513671875M-1956.825439453125,2325.4931640625L-1959.54150390625,2335.434326171875L-1960.8994140625,2343.115966796875L-1960.8994140625,2349.442138671875M-1936.9083251953125,2324.137451171875L-1938.2662353515625,2325.945068359375L-1945.5087890625,2339.952880859375L-1947.319580078125,2344.01953125L-1949.5828857421875,2347.634521484375L-1949.5828857421875,2348.086669921875L-1949.1302490234375,2348.53857421875L-1946.8668212890625,2348.53857421875L-1942.34033203125,2347.1826171875L-1939.624267578125,2346.73095703125M-1939.171630859375,2337.693603515625L-1938.2662353515625,2337.24169921875L-1935.55029296875,2337.693603515625M-1926.0443115234375,2340.40478515625L-1926.9498291015625,2341.30859375L-1930.1182861328125,2348.086669921875L-1931.023681640625,2350.797607421875L-1933.2869873046875,2355.31640625L-1934.64501953125,2358.931396484375M-1918.34912109375,2330.463623046875L-1919.7071533203125,2332.271240234375M-1919.2545166015625,2346.73095703125L-1917.8963623046875,2352.1533203125L-1918.8017578125,2355.31640625L-1921.970458984375,2360.73876953125L-1925.1390380859375,2363.449951171875L-1924.2337646484375,2361.190673828125L-1921.517822265625,2358.027587890625L-1918.34912109375,2353.509033203125L-1914.727783203125,2349.442138671875L-1912.0118408203125,2348.53857421875L-1910.65380859375,2349.442138671875L-1910.65380859375,2353.509033203125L-1911.1064453125,2355.31640625L-1913.822509765625,2360.286865234375M-1896.1685791015625,2351.701416015625L-1900.2425537109375,2355.768310546875L-1903.4112548828125,2359.8349609375L-1907.9378662109375,2364.805419921875L-1909.2958984375,2367.06494140625L-1909.2958984375,2368.872314453125L-1907.9378662109375,2369.7763671875L-1905.221923828125,2368.42041015625L-1898.8846435546875,2362.54638671875L-1894.810546875,2356.22021484375L-1894.810546875,2355.768310546875L-1896.621337890625,2360.73876953125L-1897.9793701171875,2370.22802734375L-1900.2425537109375,2378.361572265625L-1902.95849609375,2390.110107421875L-1909.2958984375,2403.666015625L-1916.5384521484375,2412.703369140625L-1928.3077392578125,2423.09619140625L-1932.3817138671875,2424L-1933.2869873046875,2419.933349609375L-1934.1923828125,2411.347900390625L-1932.834228515625,2398.243896484375L-1930.1182861328125,2394.1767578125L-1925.1390380859375,2391.4658203125L-1911.5592041015625,2387.39892578125L-1900.6953125,2381.9765625L-1895.2633056640625,2377.457763671875"/></g><g id="strokes-0f7564f8-6487-801e-8006-cc48b9f753a0-8d184a59-64e2-80a2-8006-93b3d18ec03a" class="strokes"><g class="stroke-shape"><path d="M-2181.798828125,2194.90380859375L-2182.7041015625,2194.90380859375L-2182.7041015625,2194.451904296875L-2184.967529296875,2194.90380859375L-2189.94677734375,2198.970458984375L-2192.662841796875,2201.681884765625L-2193.568115234375,2203.4892578125L-2194.4736328125,2206.65234375L-2195.37890625,2208.0078125L-2195.83154296875,2209.8154296875L-2195.83154296875,2212.07470703125L-2194.92626953125,2216.593505859375L-2194.020751953125,2217.948974609375L-2192.662841796875,2221.112060546875L-2191.75732421875,2221.112060546875L-2187.230712890625,2224.275146484375L-2179.98828125,2226.986083984375L-2175.461669921875,2226.986083984375L-2174.103515625,2227.438232421875L-2169.124267578125,2227.438232421875L-2168.218994140625,2226.986083984375L-2166.408203125,2226.986083984375L-2162.334228515625,2226.08251953125L-2157.35498046875,2226.08251953125L-2155.9970703125,2225.630615234375L-2154.63916015625,2225.630615234375L-2146.94384765625,2223.371337890625L-2146.490966796875,2222.919677734375L-2146.038330078125,2222.919677734375L-2144.680419921875,2221.563720703125L-2141.96435546875,2220.208251953125L-2139.24853515625,2217.04541015625L-2137.43798828125,2216.141357421875L-2134.269287109375,2210.71923828125L-2133.816650390625,2208.91162109375L-2134.269287109375,2206.65234375L-2135.627197265625,2203.4892578125L-2136.532470703125,2202.58544921875L-2142.869873046875,2198.5185546875L-2145.13330078125,2198.06689453125L-2150.565185546875,2195.8076171875L-2151.923095703125,2195.8076171875L-2155.9970703125,2194.451904296875L-2158.713134765625,2194.451904296875L-2160.071044921875,2194L-2167.313720703125,2194L-2172.29296875,2195.355712890625L-2175.914306640625,2195.355712890625L-2176.819580078125,2195.8076171875L-2177.724853515625,2195.8076171875L-2179.53564453125,2196.711181640625L-2180.8935546875,2196.711181640625L-2181.798828125,2197.1630859375L-2184.514892578125,2197.1630859375L-2184.967529296875,2197.614990234375L-2185.872802734375,2197.614990234375L-2185.872802734375,2198.06689453125L-2186.325439453125,2198.06689453125L-2185.872802734375,2198.06689453125L-2186.325439453125,2198.06689453125L-2185.872802734375,2198.06689453125L-2186.325439453125,2198.06689453125L-2185.872802734375,2198.06689453125L-2184.514892578125,2197.1630859375M-2135.174560546875,2211.1708984375L-2134.721923828125,2211.1708984375L-2134.721923828125,2210.71923828125L-2134.721923828125,2212.5263671875L-2134.269287109375,2213.43017578125L-2134.269287109375,2215.689697265625L-2134.721923828125,2216.141357421875L-2135.174560546875,2217.4970703125L-2135.174560546875,2221.112060546875L-2135.627197265625,2221.563720703125L-2135.174560546875,2222.015869140625L-2135.627197265625,2222.4677734375L-2135.174560546875,2223.371337890625L-2135.174560546875,2228.342041015625L-2134.721923828125,2228.793701171875L-2135.174560546875,2228.793701171875L-2135.174560546875,2230.601318359375L-2136.079833984375,2231.505126953125L-2136.079833984375,2231.05322265625L-2136.079833984375,2231.505126953125L-2137.43798828125,2231.505126953125L-2137.890625,2231.956787109375L-2137.890625,2232.40869140625L-2138.7958984375,2232.40869140625L-2139.24853515625,2232.860595703125L-2140.6064453125,2232.860595703125L-2141.05908203125,2233.3125L-2142.417236328125,2233.76416015625L-2144.227783203125,2233.76416015625L-2144.680419921875,2234.216064453125L-2146.038330078125,2234.216064453125L-2148.302001953125,2235.119873046875L-2149.207275390625,2235.119873046875L-2150.112548828125,2236.023681640625L-2151.017822265625,2236.023681640625L-2151.923095703125,2235.57177734375L-2158.26025390625,2235.57177734375L-2158.26025390625,2235.119873046875L-2159.165771484375,2235.57177734375L-2160.071044921875,2235.57177734375L-2160.523681640625,2236.023681640625L-2169.5771484375,2236.023681640625L-2170.482421875,2236.4755859375L-2171.840087890625,2236.4755859375L-2172.29296875,2236.023681640625L-2172.74560546875,2236.023681640625L-2173.1982421875,2236.4755859375L-2174.103515625,2236.023681640625L-2174.55615234375,2236.4755859375L-2177.724853515625,2236.4755859375L-2178.177734375,2236.023681640625L-2180.8935546875,2236.023681640625L-2181.798828125,2235.119873046875L-2184.062255859375,2234.66796875L-2186.778076171875,2232.860595703125L-2188.135986328125,2232.860595703125L-2188.588623046875,2232.40869140625L-2190.3994140625,2231.956787109375L-2190.85205078125,2231.505126953125L-2191.75732421875,2231.505126953125L-2192.2099609375,2231.05322265625L-2192.662841796875,2231.05322265625L-2192.662841796875,2230.601318359375L-2193.568115234375,2230.601318359375L-2194.020751953125,2230.1494140625L-2194.020751953125,2229.697509765625L-2194.92626953125,2229.697509765625L-2194.92626953125,2229.24560546875L-2195.37890625,2229.24560546875L-2195.83154296875,2228.793701171875L-2195.83154296875,2228.342041015625L-2196.283935546875,2228.342041015625L-2196.736572265625,2227.89013671875L-2196.736572265625,2226.986083984375L-2197.189453125,2226.986083984375L-2197.189453125,2226.08251953125L-2197.64208984375,2225.630615234375L-2197.64208984375,2224.72705078125L-2198.0947265625,2224.275146484375L-2198.0947265625,2217.4970703125L-2197.64208984375,2217.04541015625L-2198.0947265625,2216.593505859375L-2197.64208984375,2216.141357421875L-2197.64208984375,2213.88232421875L-2197.189453125,2213.88232421875L-2197.64208984375,2213.43017578125L-2197.189453125,2212.978271484375L-2197.64208984375,2212.5263671875L-2197.189453125,2212.5263671875L-2197.189453125,2210.71923828125L-2196.283935546875,2209.363525390625L-2196.736572265625,2208.91162109375L-2196.283935546875,2208.91162109375L-2195.37890625,2207.555908203125L-2195.37890625,2207.104248046875L-2194.92626953125,2207.104248046875L-2195.37890625,2207.104248046875L-2194.92626953125,2206.200439453125M-2141.51171875,2222.4677734375L-2141.51171875,2222.015869140625L-2141.96435546875,2224.275146484375L-2141.96435546875,2228.342041015625L-2142.869873046875,2231.505126953125L-2142.869873046875,2232.860595703125L-2143.322509765625,2232.860595703125M-2149.207275390625,2228.342041015625L-2149.659912109375,2231.956787109375L-2151.470458984375,2237.379150390625L-2151.923095703125,2237.8310546875M-2157.8076171875,2227.89013671875L-2157.8076171875,2228.793701171875L-2160.071044921875,2236.4755859375L-2160.976318359375,2238.282958984375L-2161.428955078125,2240.09033203125M-2170.934814453125,2229.24560546875L-2171.387451171875,2228.342041015625L-2172.29296875,2233.3125L-2174.55615234375,2239.638427734375M-2184.967529296875,2227.438232421875L-2185.420166015625,2227.89013671875L-2185.872802734375,2227.89013671875L-2187.230712890625,2233.76416015625L-2187.683349609375,2234.66796875M-2190.3994140625,2225.1787109375L-2194.020751953125,2231.05322265625M-2194.92626953125,2219.75634765625L-2195.83154296875,2219.75634765625L-2197.64208984375,2222.015869140625L-2198.0947265625,2224.275146484375L-2199,2225.1787109375L-2198.54736328125,2225.1787109375M-2134.269287109375,2218.40087890625L-2135.174560546875,2218.40087890625L-2132.911376953125,2218.8525390625L-2132.005859375,2219.75634765625L-2131.100341796875,2219.75634765625L-2130.64794921875,2220.208251953125L-2128.83740234375,2220.66015625L-2127.026611328125,2222.015869140625L-2127.026611328125,2221.563720703125L-2125.668701171875,2222.4677734375L-2124.763427734375,2222.4677734375L-2124.763427734375,2222.919677734375L-2124.310791015625,2223.371337890625L-2123.858154296875,2223.371337890625L-2121.5947265625,2225.630615234375L-2121.5947265625,2226.08251953125L-2121.14208984375,2226.08251953125L-2120.689453125,2227.438232421875L-2120.23681640625,2227.438232421875L-2120.23681640625,2228.342041015625L-2119.783935546875,2228.793701171875L-2119.783935546875,2237.379150390625L-2120.23681640625,2237.379150390625L-2120.23681640625,2239.186767578125L-2120.689453125,2239.638427734375L-2120.689453125,2240.542236328125L-2121.14208984375,2240.542236328125L-2121.14208984375,2240.993896484375L-2121.5947265625,2241.446044921875L-2121.5947265625,2242.349853515625L-2123.858154296875,2244.609130859375L-2124.310791015625,2245.512939453125L-2124.763427734375,2245.512939453125L-2125.668701171875,2246.41650390625L-2126.121337890625,2246.868408203125L-2126.121337890625,2247.3203125L-2127.026611328125,2247.3203125L-2127.479248046875,2247.772216796875L-2127.931884765625,2247.772216796875L-2129.2900390625,2249.127685546875L-2129.74267578125,2249.127685546875L-2132.458740234375,2251.38720703125L-2132.911376953125,2251.38720703125L-2132.911376953125,2251.8388671875L-2133.364013671875,2251.8388671875L-2135.627197265625,2253.194580078125L-2139.701171875,2254.09814453125L-2141.05908203125,2255.001953125L-2144.227783203125,2255.90576171875L-2145.585693359375,2255.90576171875L-2146.94384765625,2256.357666015625L-2150.112548828125,2256.357666015625L-2150.565185546875,2256.809326171875L-2151.017822265625,2256.357666015625L-2151.923095703125,2256.809326171875L-2152.828369140625,2256.357666015625L-2155.9970703125,2256.357666015625L-2156.44970703125,2255.90576171875L-2158.713134765625,2255.90576171875L-2159.165771484375,2255.453857421875L-2160.071044921875,2255.453857421875L-2160.523681640625,2255.001953125L-2161.881591796875,2255.001953125L-2162.334228515625,2254.550048828125L-2163.23974609375,2254.550048828125L-2163.23974609375,2254.09814453125L-2164.145263671875,2254.09814453125L-2164.597900390625,2253.646240234375L-2165.95556640625,2253.646240234375L-2166.408203125,2253.194580078125L-2167.313720703125,2253.194580078125L-2167.766357421875,2252.74267578125L-2169.124267578125,2252.74267578125L-2169.5771484375,2252.290771484375L-2170.482421875,2252.290771484375L-2170.934814453125,2251.8388671875L-2173.65087890625,2250.935302734375L-2174.103515625,2250.031494140625L-2174.55615234375,2250.031494140625L-2174.55615234375,2249.57958984375L-2175.461669921875,2248.67578125L-2175.914306640625,2248.67578125L-2176.819580078125,2247.772216796875L-2177.272216796875,2247.772216796875L-2180.44091796875,2244.157470703125L-2182.25146484375,2241.446044921875L-2182.7041015625,2240.09033203125L-2183.609619140625,2239.638427734375L-2183.609619140625,2238.73486328125L-2184.514892578125,2237.379150390625L-2184.514892578125,2236.4755859375L-2184.514892578125,2237.8310546875M-2120.689453125,2237.8310546875L-2121.14208984375,2237.8310546875L-2120.689453125,2239.186767578125L-2121.14208984375,2239.638427734375L-2121.14208984375,2249.57958984375L-2120.689453125,2250.4833984375L-2120.689453125,2253.194580078125L-2120.23681640625,2253.194580078125L-2120.689453125,2253.194580078125L-2120.689453125,2255.453857421875L-2121.14208984375,2255.90576171875L-2121.14208984375,2257.71337890625L-2121.14208984375,2257.26123046875L-2121.14208984375,2257.71337890625L-2121.14208984375,2257.26123046875L-2121.14208984375,2257.71337890625L-2121.5947265625,2257.26123046875L-2121.5947265625,2257.71337890625M-2121.5947265625,2257.71337890625L-2122.5,2258.616943359375L-2122.5,2259.06884765625L-2123.858154296875,2260.876220703125L-2123.858154296875,2261.328125L-2124.763427734375,2262.231689453125L-2125.216064453125,2262.231689453125L-2125.216064453125,2262.68359375L-2125.668701171875,2263.1357421875L-2126.121337890625,2263.1357421875L-2127.479248046875,2264.4912109375L-2127.931884765625,2264.4912109375L-2128.83740234375,2266.75048828125L-2130.1953125,2267.202392578125L-2132.005859375,2268.55810546875L-2134.269287109375,2269.010009765625L-2134.269287109375,2269.461669921875L-2134.721923828125,2269.461669921875L-2135.174560546875,2269.010009765625L-2135.174560546875,2269.461669921875L-2135.627197265625,2269.461669921875L-2135.627197265625,2269.91357421875L-2136.532470703125,2269.91357421875L-2136.9853515625,2270.365478515625L-2137.43798828125,2270.365478515625L-2137.43798828125,2270.8173828125L-2138.34326171875,2270.8173828125L-2138.34326171875,2271.269287109375L-2140.6064453125,2271.72119140625L-2141.05908203125,2272.173095703125L-2141.05908203125,2271.72119140625L-2141.51171875,2272.173095703125L-2143.775146484375,2272.625L-2143.775146484375,2273.07666015625L-2144.227783203125,2273.07666015625L-2144.680419921875,2272.625L-2144.680419921875,2273.07666015625L-2146.038330078125,2272.173095703125L-2149.207275390625,2272.173095703125L-2150.112548828125,2271.72119140625L-2152.375732421875,2271.72119140625L-2153.28125,2271.269287109375L-2157.35498046875,2271.269287109375L-2157.35498046875,2270.8173828125L-2158.26025390625,2271.269287109375L-2158.26025390625,2270.8173828125L-2161.428955078125,2270.8173828125L-2161.428955078125,2270.365478515625L-2165.050537109375,2270.365478515625L-2165.050537109375,2269.91357421875L-2166.861083984375,2269.91357421875L-2168.218994140625,2269.010009765625L-2169.124267578125,2269.010009765625L-2169.5771484375,2268.55810546875L-2170.934814453125,2268.55810546875L-2170.934814453125,2268.10595703125L-2171.840087890625,2268.10595703125L-2172.29296875,2267.654052734375L-2174.55615234375,2267.654052734375L-2174.55615234375,2267.202392578125L-2176.819580078125,2267.202392578125L-2177.272216796875,2266.75048828125L-2178.177734375,2266.75048828125L-2179.0830078125,2265.846923828125L-2179.0830078125,2266.298828125L-2179.53564453125,2265.846923828125L-2180.44091796875,2265.846923828125L-2180.44091796875,2265.39501953125L-2180.8935546875,2265.39501953125L-2181.34619140625,2264.943115234375L-2181.798828125,2264.943115234375L-2181.798828125,2264.4912109375L-2182.25146484375,2264.4912109375L-2182.25146484375,2264.039306640625L-2183.15673828125,2263.1357421875L-2183.15673828125,2262.231689453125L-2183.609619140625,2262.231689453125L-2183.609619140625,2261.780029296875L-2184.062255859375,2261.780029296875L-2184.062255859375,2260.876220703125L-2185.872802734375,2258.616943359375L-2185.872802734375,2257.71337890625L-2186.325439453125,2257.26123046875L-2186.778076171875,2255.001953125L-2187.230712890625,2255.001953125L-2187.230712890625,2254.550048828125L-2187.683349609375,2254.09814453125L-2187.683349609375,2253.194580078125L-2188.588623046875,2251.8388671875L-2188.588623046875,2250.935302734375L-2189.04150390625,2250.4833984375L-2189.04150390625,2241.89794921875L-2188.588623046875,2240.993896484375L-2188.588623046875,2239.638427734375L-2189.04150390625,2239.638427734375L-2188.588623046875,2239.186767578125L-2188.588623046875,2238.73486328125L-2189.04150390625,2238.73486328125L-2188.588623046875,2238.73486328125L-2188.588623046875,2238.282958984375L-2189.04150390625,2238.73486328125L-2189.04150390625,2238.282958984375L-2188.588623046875,2238.282958984375L-2189.04150390625,2238.282958984375L-2188.588623046875,2238.282958984375L-2189.04150390625,2237.8310546875L-2189.04150390625,2236.4755859375L-2188.588623046875,2237.379150390625M-2177.724853515625,2249.57958984375L-2177.724853515625,2249.127685546875L-2178.177734375,2249.127685546875L-2178.177734375,2248.67578125L-2178.177734375,2249.127685546875L-2178.63037109375,2249.127685546875L-2179.0830078125,2250.4833984375L-2179.0830078125,2252.290771484375L-2182.25146484375,2263.587646484375L-2179.53564453125,2261.328125L-2178.177734375,2259.520751953125M-2171.387451171875,2256.809326171875L-2171.387451171875,2255.90576171875L-2171.387451171875,2256.357666015625L-2170.934814453125,2256.357666015625L-2171.387451171875,2268.55810546875L-2170.934814453125,2268.55810546875M-2160.523681640625,2260.42431640625L-2160.523681640625,2259.972412109375L-2161.881591796875,2269.461669921875L-2161.881591796875,2270.365478515625L-2161.428955078125,2270.8173828125M-2151.017822265625,2260.876220703125L-2151.017822265625,2271.72119140625L-2150.565185546875,2272.625M-2140.6064453125,2255.90576171875L-2141.05908203125,2255.90576171875L-2140.6064453125,2258.616943359375L-2140.6064453125,2262.68359375L-2141.51171875,2267.202392578125L-2141.05908203125,2269.91357421875M-2130.64794921875,2255.453857421875L-2128.83740234375,2268.10595703125M-2124.763427734375,2251.8388671875L-2125.216064453125,2251.8388671875L-2125.668701171875,2254.09814453125L-2125.668701171875,2264.039306640625L-2125.216064453125,2264.4912109375M-2170.02978515625,2206.65234375L-2172.29296875,2206.200439453125L-2170.934814453125,2205.296630859375L-2168.671630859375,2203.03759765625L-2166.861083984375,2198.970458984375L-2166.408203125,2197.1630859375L-2166.408203125,2198.5185546875L-2166.861083984375,2199.874267578125L-2166.861083984375,2202.58544921875L-2166.408203125,2204.8447265625L-2165.5029296875,2206.65234375L-2164.145263671875,2213.43017578125L-2164.145263671875,2215.23779296875L-2163.6923828125,2216.141357421875L-2163.23974609375,2218.8525390625L-2162.787109375,2219.3046875L-2163.23974609375,2219.3046875L-2162.787109375,2219.75634765625L-2162.787109375,2219.3046875L-2163.23974609375,2219.3046875L-2163.23974609375,2219.75634765625L-2165.5029296875,2220.208251953125L-2167.313720703125,2221.112060546875L-2169.124267578125,2221.112060546875L-2169.124267578125,2220.66015625L-2169.124267578125,2221.112060546875L-2168.218994140625,2220.66015625L-2166.861083984375,2220.66015625L-2162.334228515625,2219.75634765625L-2160.071044921875,2218.8525390625L-2160.071044921875,2219.3046875L-2159.618408203125,2218.8525390625L-2159.165771484375,2218.8525390625L-2159.618408203125,2218.8525390625M-2149.659912109375,2240.09033203125L-2149.659912109375,2242.801513671875L-2149.207275390625,2243.705322265625L-2148.754638671875,2247.772216796875L-2148.302001953125,2248.223876953125L-2148.302001953125,2249.127685546875L-2148.302001953125,2248.67578125L-2150.112548828125,2248.67578125L-2151.923095703125,2249.57958984375L-2153.73388671875,2249.57958984375L-2150.112548828125,2248.223876953125L-2147.84912109375,2248.223876953125L-2145.585693359375,2247.3203125L-2144.227783203125,2247.3203125L-2142.869873046875,2247.772216796875L-2143.775146484375,2247.772216796875L-2144.227783203125,2247.3203125M-2150.112548828125,2242.801513671875L-2150.112548828125,2243.25341796875L-2150.565185546875,2243.705322265625L-2151.923095703125,2241.446044921875L-2151.923095703125,2237.379150390625L-2151.923095703125,2238.282958984375L-2151.017822265625,2240.993896484375L-2151.017822265625,2242.349853515625L-2150.112548828125,2244.609130859375M-2082.213134765625,2216.593505859375L-2084.476318359375,2215.23779296875L-2085.3818359375,2215.23779296875L-2069.53857421875,2215.689697265625L-2057.316650390625,2214.333984375L-2050.979248046875,2214.333984375L-2045.54736328125,2213.43017578125L-2046.9053955078125,2213.88232421875L-2063.65380859375,2216.141357421875L-2073.15966796875,2215.689697265625L-2079.04443359375,2216.593505859375L-2080.85498046875,2217.4970703125L-2078.591796875,2217.04541015625L-2072.70703125,2217.04541015625L-2062.2958984375,2216.141357421875L-2057.316650390625,2216.141357421875L-2055.95849609375,2215.689697265625L-2055.05322265625,2216.141357421875L-2060.03271484375,2216.141357421875L-2070.44384765625,2217.04541015625L-2074.517822265625,2217.04541015625L-2084.023681640625,2215.23779296875L-2079.94970703125,2216.141357421875L-2074.517822265625,2216.141357421875L-2057.316650390625,2213.43017578125L-2046.9053955078125,2213.43017578125L-2046,2213.88232421875L-2046,2213.43017578125L-2046,2213.88232421875L-2045.54736328125,2213.43017578125L-2044.6419677734375,2213.43017578125L-2044.6419677734375,2213.88232421875L-2043.7366943359375,2213.43017578125L-2041.020751953125,2213.43017578125L-2039.2100830078125,2212.978271484375L-2039.6627197265625,2212.978271484375L-2039.6627197265625,2213.43017578125L-2041.020751953125,2213.43017578125L-2042.378662109375,2212.978271484375L-2058.221923828125,2213.88232421875L-2070.44384765625,2215.23779296875L-2073.15966796875,2215.23779296875L-2074.970458984375,2215.689697265625L-2079.4970703125,2215.689697265625L-2084.92919921875,2216.593505859375L-2077.23388671875,2215.23779296875L-2066.369873046875,2216.141357421875L-2062.2958984375,2216.141357421875M-2063.65380859375,2236.023681640625L-2079.4970703125,2237.379150390625L-2077.23388671875,2237.379150390625L-2056.4111328125,2235.119873046875L-2051.884765625,2235.119873046875L-2049.168701171875,2234.66796875L-2046.9053955078125,2235.119873046875L-2045.54736328125,2234.66796875L-2048.26318359375,2234.66796875L-2050.979248046875,2235.119873046875L-2053.6953125,2236.023681640625L-2074.517822265625,2238.73486328125L-2077.23388671875,2238.282958984375L-2080.40234375,2238.282958984375L-2079.94970703125,2238.282958984375L-2079.4970703125,2238.73486328125L-2074.06494140625,2239.186767578125L-2065.46435546875,2237.8310546875L-2050.526611328125,2236.4755859375L-2045.0946044921875,2235.57177734375L-2042.378662109375,2235.57177734375L-2044.6419677734375,2235.57177734375L-2060.485107421875,2237.379150390625L-2067.275146484375,2237.379150390625L-2080.85498046875,2236.4755859375L-2080.85498046875,2236.023681640625L-2080.85498046875,2236.4755859375L-2074.970458984375,2236.927490234375L-2050.979248046875,2235.119873046875L-2045.54736328125,2234.216064453125L-2041.4735107421875,2234.216064453125L-2041.020751953125,2234.66796875L-2040.568115234375,2234.66796875L-2042.378662109375,2234.66796875L-2049.168701171875,2236.4755859375L-2068.63330078125,2239.186767578125L-2073.6123046875,2239.186767578125L-2068.180419921875,2239.186767578125L-2042.8314208984375,2235.57177734375L-2041.020751953125,2235.57177734375L-2041.926025390625,2236.023681640625L-2044.6419677734375,2236.023681640625L-2050.979248046875,2237.379150390625L-2063.65380859375,2239.186767578125L-2070.44384765625,2240.542236328125L-2079.94970703125,2240.993896484375L-2079.4970703125,2240.542236328125L-2078.13916015625,2240.09033203125L-2070.44384765625,2238.73486328125L-2061.84326171875,2237.8310546875L-2056.4111328125,2237.8310546875L-2045.54736328125,2236.4755859375L-2042.378662109375,2236.4755859375L-2045.0946044921875,2236.4755859375L-2052.7900390625,2238.282958984375L-2067.275146484375,2240.542236328125L-2071.34912109375,2240.542236328125L-2072.70703125,2240.09033203125L-2077.6865234375,2240.542236328125L-2070.896484375,2239.186767578125L-2045.54736328125,2236.927490234375L-2045.54736328125,2236.4755859375L-2045.54736328125,2236.927490234375L-2049.621337890625,2236.927490234375M-1999.828369140625,2208.91162109375L-2000.281005859375,2208.0078125L-2002.091796875,2206.65234375L-2002.54443359375,2205.74853515625L-2003.4498291015625,2205.296630859375L-2002.091796875,2211.622802734375L-2000.7337646484375,2216.141357421875L-1998.923095703125,2220.66015625L-1997.1124267578125,2232.860595703125L-1996.6597900390625,2233.3125L-1996.2071533203125,2234.66796875L-1995.7545166015625,2234.66796875L-1995.3018798828125,2232.40869140625L-1990.7752685546875,2222.4677734375L-1985.7958984375,2214.785888671875L-1984.8905029296875,2211.622802734375L-1982.6273193359375,2207.555908203125L-1982.174560546875,2205.74853515625L-1982.174560546875,2207.555908203125M-1955.4674072265625,2205.74853515625L-1954.5621337890625,2204.392822265625L-1954.5621337890625,2203.941162109375L-1954.5621337890625,2204.392822265625L-1957.2781982421875,2205.74853515625L-1959.994140625,2208.4599609375L-1963.6153564453125,2211.1708984375L-1967.689453125,2215.23779296875L-1972.216064453125,2220.66015625L-1973.573974609375,2223.371337890625L-1973.573974609375,2226.08251953125L-1973.121337890625,2227.89013671875L-1972.216064453125,2229.697509765625L-1969.04736328125,2230.601318359375L-1966.7840576171875,2230.601318359375L-1964.520751953125,2229.697509765625L-1961.8046875,2227.89013671875L-1958.6361083984375,2223.371337890625L-1956.372802734375,2219.3046875L-1952.75146484375,2210.267333984375L-1952.75146484375,2207.104248046875L-1952.298828125,2207.104248046875L-1952.75146484375,2207.104248046875L-1952.75146484375,2208.4599609375L-1957.7308349609375,2227.438232421875L-1957.7308349609375,2232.860595703125L-1955.9200439453125,2236.023681640625L-1955.0147705078125,2236.927490234375L-1954.5621337890625,2236.927490234375L-1955.0147705078125,2236.927490234375L-1955.0147705078125,2235.57177734375L-1956.825439453125,2232.860595703125M-1936.9083251953125,2200.778076171875L-1936.0030517578125,2198.5185546875L-1936.9083251953125,2204.8447265625L-1939.624267578125,2215.23779296875L-1945.0562744140625,2225.630615234375L-1945.0562744140625,2226.08251953125L-1944.6036376953125,2225.630615234375L-1943.24560546875,2225.1787109375L-1935.55029296875,2223.8232421875L-1923.328369140625,2223.8232421875L-1924.6864013671875,2223.371337890625M-1907.4852294921875,2209.363525390625L-1907.4852294921875,2208.91162109375L-1910.201171875,2212.5263671875L-1912.0118408203125,2216.141357421875L-1913.369873046875,2219.75634765625L-1914.2752685546875,2224.72705078125L-1914.2752685546875,2226.986083984375L-1913.369873046875,2228.342041015625L-1912.4644775390625,2228.793701171875L-1911.1064453125,2228.342041015625L-1906.5799560546875,2225.1787109375L-1893,2209.363525390625L-1893,2210.267333984375L-1894.3580322265625,2213.88232421875L-1901.14794921875,2226.986083984375L-1902.95849609375,2231.956787109375L-1903.8638916015625,2235.57177734375L-1903.8638916015625,2239.638427734375L-1904.316650390625,2239.638427734375L-1904.769287109375,2238.282958984375M-2085.83447265625,2277.595458984375L-2086.73974609375,2276.691650390625L-2083.571044921875,2279.403076171875L-2074.06494140625,2285.72900390625L-2069.53857421875,2288.440185546875L-2064.1064453125,2290.699462890625L-2056.4111328125,2294.766357421875L-2052.7900390625,2297.025634765625L-2049.168701171875,2300.640625L-2048.716064453125,2300.640625L-2048.716064453125,2301.09228515625L-2049.168701171875,2301.09228515625L-2050.073974609375,2300.188720703125L-2050.526611328125,2300.188720703125L-2050.979248046875,2299.73681640625L-2050.979248046875,2299.284912109375L-2052.7900390625,2298.381103515625L-2053.6953125,2297.477294921875L-2058.674560546875,2295.218017578125L-2065.01171875,2290.699462890625L-2068.180419921875,2288.891845703125L-2071.8017578125,2287.08447265625L-2078.591796875,2284.825439453125L-2082.665771484375,2281.662109375L-2084.92919921875,2279.403076171875L-2086.73974609375,2277.1435546875L-2087.64501953125,2275.3359375L-2089.0029296875,2273.98046875L-2089.908203125,2273.98046875L-2089.45556640625,2273.98046875L-2087.64501953125,2276.23974609375L-2084.92919921875,2278.4990234375L-2076.78125,2282.56591796875L-2070.44384765625,2286.180908203125L-2062.74853515625,2291.603271484375L-2060.03271484375,2292.958740234375L-2054.6005859375,2296.57373046875L-2053.24267578125,2297.92919921875L-2053.24267578125,2298.381103515625L-2053.6953125,2298.381103515625L-2055.505859375,2296.57373046875L-2062.2958984375,2293.862548828125L-2065.46435546875,2292.05517578125L-2067.727783203125,2290.24755859375L-2072.70703125,2284.825439453125L-2076.78125,2282.114013671875L-2083.571044921875,2280.306640625L-2085.3818359375,2279.403076171875L-2086.73974609375,2277.595458984375L-2069.53857421875,2283.92138671875L-2064.55908203125,2286.180908203125L-2054.14794921875,2292.05517578125L-2052.33740234375,2293.410888671875L-2052.7900390625,2292.958740234375L-2053.6953125,2292.958740234375L-2058.221923828125,2291.603271484375L-2062.2958984375,2291.1513671875M-2098.05615234375,2293.410888671875L-2099.414306640625,2292.05517578125L-2099.414306640625,2291.603271484375L-2099.866943359375,2291.603271484375L-2097.603515625,2293.862548828125L-2086.287109375,2302.899658203125L-2073.15966796875,2311.4853515625L-2066.822509765625,2317.359375L-2072.25439453125,2313.29296875L-2079.04443359375,2309.225830078125L-2082.213134765625,2306.5146484375L-2086.287109375,2303.803466796875L-2098.05615234375,2297.92919921875L-2102.130126953125,2295.218017578125L-2090.361083984375,2299.284912109375L-2084.92919921875,2301.99609375L-2077.6865234375,2306.966796875L-2073.6123046875,2309.225830078125L-2066.822509765625,2312.38916015625L-2067.727783203125,2312.38916015625L-2069.9912109375,2311.4853515625L-2074.517822265625,2309.225830078125L-2082.665771484375,2302.447998046875L-2087.192138671875,2297.92919921875L-2091.718994140625,2294.766357421875L-2097.15087890625,2292.05517578125L-2098.961669921875,2291.603271484375L-2098.509033203125,2291.603271484375L-2091.718994140625,2297.025634765625L-2083.571044921875,2302.899658203125L-2077.6865234375,2306.06298828125L-2069.53857421875,2311.033447265625L-2067.727783203125,2312.841064453125L-2067.275146484375,2313.74462890625L-2067.727783203125,2313.74462890625L-2071.34912109375,2310.58154296875L-2073.6123046875,2306.966796875M-2049.168701171875,2279.854736328125L-2047.8106689453125,2277.595458984375L-2046.9053955078125,2277.1435546875L-2046.9053955078125,2275.787841796875L-2052.33740234375,2281.210205078125L-2058.221923828125,2286.180908203125L-2074.06494140625,2298.381103515625L-2087.192138671875,2307.418701171875L-2094.434814453125,2311.93701171875L-2099.866943359375,2314.6484375L-2102.582763671875,2315.552001953125L-2102.130126953125,2315.552001953125L-2101.677490234375,2314.196533203125L-2099.414306640625,2312.38916015625L-2087.64501953125,2304.707275390625L-2049.621337890625,2284.825439453125L-2043.2840576171875,2278.950927734375L-2046,2281.662109375L-2054.14794921875,2287.98828125L-2063.201171875,2292.958740234375L-2089.45556640625,2309.225830078125L-2094.887451171875,2311.4853515625L-2092.624267578125,2310.58154296875L-2076.78125,2301.544189453125L-2053.24267578125,2285.72900390625L-2047.8106689453125,2281.210205078125L-2048.26318359375,2281.662109375L-2048.26318359375,2282.114013671875L-2057.316650390625,2288.891845703125L-2065.9169921875,2293.862548828125L-2091.718994140625,2313.29296875L-2094.887451171875,2315.100341796875L-2095.340087890625,2315.100341796875L-2094.434814453125,2314.196533203125M-2036.94677734375,2315.100341796875L-2037.3994140625,2314.6484375L-2038.3046875,2314.6484375L-2038.3046875,2314.196533203125L-2036.494140625,2310.58154296875L-2033.3255615234375,2306.5146484375L-2030.15673828125,2303.3515625L-2026.0828857421875,2300.188720703125L-2024.724853515625,2299.73681640625L-2023.3668212890625,2300.188720703125L-2022.4615478515625,2304.255615234375L-2023.819580078125,2310.129638671875L-2025.1776123046875,2311.4853515625L-2024.724853515625,2311.033447265625L-2024.724853515625,2309.677978515625L-2017.0296630859375,2301.99609375L-2014.3135986328125,2300.640625L-2012.9556884765625,2300.640625L-2012.05029296875,2301.99609375L-2012.05029296875,2304.707275390625L-2013.8609619140625,2308.774169921875L-2017.0296630859375,2314.196533203125L-2017.9349365234375,2316.455810546875L-2017.9349365234375,2316.00390625L-2015.2188720703125,2311.4853515625L-2011.14501953125,2306.5146484375L-2005.7130126953125,2301.99609375L-2003.4498291015625,2302.899658203125L-2002.9970703125,2304.255615234375L-2002.9970703125,2307.870361328125L-2006.165771484375,2314.6484375L-2008.8817138671875,2319.1669921875M-2009.3343505859375,2325.945068359375L-2008.8817138671875,2325.945068359375L-2008.8817138671875,2325.4931640625L-2007.976318359375,2325.041259765625L-2005.2603759765625,2322.330078125L-1998.470458984375,2314.196533203125L-1996.6597900390625,2311.4853515625L-1988.9644775390625,2302.899658203125L-1988.059326171875,2302.447998046875L-1990.7752685546875,2310.58154296875L-1994.8492431640625,2319.1669921875L-1997.1124267578125,2323.23388671875L-1999.375732421875,2330.91552734375L-1998.470458984375,2330.91552734375M-2001.6390380859375,2320.07080078125L-2001.6390380859375,2319.618896484375L-1997.1124267578125,2320.07080078125M-1980.364013671875,2314.196533203125L-1983.0799560546875,2321.426513671875L-1989.869873046875,2337.24169921875L-1989.417236328125,2336.789794921875L-1988.5118408203125,2334.078857421875L-1986.701171875,2330.463623046875L-1983.9852294921875,2327.30078125L-1979.911376953125,2325.4931640625L-1977.1953125,2325.945068359375L-1973.121337890625,2327.75244140625L-1972.668701171875,2328.204345703125L-1973.121337890625,2330.01171875M-1956.825439453125,2310.129638671875L-1956.372802734375,2309.677978515625L-1958.6361083984375,2319.1669921875L-1964.9735107421875,2335.434326171875L-1969.95263671875,2346.73095703125M-1960.44677734375,2330.01171875L-1959.0887451171875,2327.75244140625L-1951.3935546875,2321.87841796875L-1950.0355224609375,2321.426513671875M-1956.825439453125,2325.4931640625L-1959.54150390625,2335.434326171875L-1960.8994140625,2343.115966796875L-1960.8994140625,2349.442138671875M-1936.9083251953125,2324.137451171875L-1938.2662353515625,2325.945068359375L-1945.5087890625,2339.952880859375L-1947.319580078125,2344.01953125L-1949.5828857421875,2347.634521484375L-1949.5828857421875,2348.086669921875L-1949.1302490234375,2348.53857421875L-1946.8668212890625,2348.53857421875L-1942.34033203125,2347.1826171875L-1939.624267578125,2346.73095703125M-1939.171630859375,2337.693603515625L-1938.2662353515625,2337.24169921875L-1935.55029296875,2337.693603515625M-1926.0443115234375,2340.40478515625L-1926.9498291015625,2341.30859375L-1930.1182861328125,2348.086669921875L-1931.023681640625,2350.797607421875L-1933.2869873046875,2355.31640625L-1934.64501953125,2358.931396484375M-1918.34912109375,2330.463623046875L-1919.7071533203125,2332.271240234375M-1919.2545166015625,2346.73095703125L-1917.8963623046875,2352.1533203125L-1918.8017578125,2355.31640625L-1921.970458984375,2360.73876953125L-1925.1390380859375,2363.449951171875L-1924.2337646484375,2361.190673828125L-1921.517822265625,2358.027587890625L-1918.34912109375,2353.509033203125L-1914.727783203125,2349.442138671875L-1912.0118408203125,2348.53857421875L-1910.65380859375,2349.442138671875L-1910.65380859375,2353.509033203125L-1911.1064453125,2355.31640625L-1913.822509765625,2360.286865234375M-1896.1685791015625,2351.701416015625L-1900.2425537109375,2355.768310546875L-1903.4112548828125,2359.8349609375L-1907.9378662109375,2364.805419921875L-1909.2958984375,2367.06494140625L-1909.2958984375,2368.872314453125L-1907.9378662109375,2369.7763671875L-1905.221923828125,2368.42041015625L-1898.8846435546875,2362.54638671875L-1894.810546875,2356.22021484375L-1894.810546875,2355.768310546875L-1896.621337890625,2360.73876953125L-1897.9793701171875,2370.22802734375L-1900.2425537109375,2378.361572265625L-1902.95849609375,2390.110107421875L-1909.2958984375,2403.666015625L-1916.5384521484375,2412.703369140625L-1928.3077392578125,2423.09619140625L-1932.3817138671875,2424L-1933.2869873046875,2419.933349609375L-1934.1923828125,2411.347900390625L-1932.834228515625,2398.243896484375L-1930.1182861328125,2394.1767578125L-1925.1390380859375,2391.4658203125L-1911.5592041015625,2387.39892578125L-1900.6953125,2381.9765625L-1895.2633056640625,2377.457763671875" style="fill: none; stroke-width: 2; stroke: rgb(255, 247, 235); stroke-opacity: 1;"/></g></g></g></svg>